<?xml version="1.0" encoding="utf-8"?>
<!-- Generator: Adobe Illustrator 16.0.0, SVG Export Plug-In . SVG Version: 6.00 Build 0)  -->
<!DOCTYPE svg PUBLIC "-//W3C//DTD SVG 1.1 Tiny//EN" "http://www.w3.org/Graphics/SVG/1.1/DTD/svg11-tiny.dtd">
<svg version="1.1" baseProfile="tiny" id="Capa_1" xmlns="http://www.w3.org/2000/svg" xmlns:xlink="http://www.w3.org/1999/xlink"
	 x="0px" y="0px" width="720px" height="720px" viewBox="0 0 720 720" xml:space="preserve">
<g>
	<path fill="#AE4B00" d="M640.92,104.104v511.791c0,22.711-15.75,54.815-90.773,78.792C499.043,711.014,431.515,720,359.993,720
		c-11.447,0-22.781-0.225-33.961-0.689c-14.358-0.576-28.449-1.532-42.188-2.84c-30.727-2.897-59.667-7.58-85.599-13.88
		c-9.928-2.391-19.406-5.034-28.392-7.903c-4.837-1.547-9.436-3.122-13.795-4.739c-63.197-23.344-76.978-52.805-76.978-74.053
		V104.104l97.256,58.974L360,201.094l187.587-35.156L640.92,104.104z"/>
	<path fill="#803400" d="M547.587,165.938L360,201.094l-3.663-0.758v519.646c1.219,0.006,2.434,0.019,3.656,0.019
		c71.521,0,139.05-8.986,190.153-25.312c75.023-23.977,90.773-56.081,90.773-78.792V104.104L547.587,165.938z"/>
	<g>
		<rect x="511.411" y="212.217" fill="#AE4B00" width="42.188" height="295.72"/>
		<rect x="417.417" y="229.303" fill="#AE4B00" width="42.188" height="121.514"/>
		<rect x="417.417" y="463.57" fill="#AE4B00" width="42.188" height="76.899"/>
	</g>
	<g>
		<path fill="#803400" d="M326.032,442.378v276.933c-14.358-0.576-28.449-1.532-42.188-2.84V442.378H326.032z"/>
		<path fill="#803400" d="M198.246,603.211v99.38c-9.928-2.391-19.406-5.034-28.392-7.903c-4.837-1.547-9.436-3.122-13.795-4.739
			v-86.737H198.246z"/>
		<rect x="207.267" y="221.737" fill="#803400" width="42.188" height="63.506"/>
		<rect x="207.267" y="324.802" fill="#803400" width="42.188" height="44.101"/>
	</g>
	<path fill="#AE4B00" d="M359.999,208.214c-71.52,0-139.046-8.992-190.14-25.315c-75.025-23.971-90.773-56.077-90.773-78.791
		s15.749-54.82,90.773-78.791C220.953,8.992,288.479,0,359.999,0c71.519,0,139.047,8.992,190.14,25.315
		c75.025,23.971,90.773,56.077,90.773,78.791c0,22.714-15.748,54.82-90.773,78.791C499.046,199.222,431.52,208.214,359.999,208.214z
		 M359.999,42.188c-67.281,0-130.246,8.28-177.3,23.313c-45.066,14.398-61.424,30.975-61.424,38.605s16.359,24.208,61.425,38.606
		c47.054,15.033,110.019,23.312,177.3,23.312c67.28,0,130.245-8.28,177.3-23.312c45.067-14.398,61.427-30.977,61.427-38.606
		S582.367,79.899,537.3,65.5C490.244,50.468,427.279,42.188,359.999,42.188z"/>
</g>
<path fill="#803400" d="M550.139,25.315C499.046,8.992,431.52,0,359.999,0c-1.224,0-2.443,0.008-3.664,0.014v42.188
	c1.221-0.006,2.44-0.014,3.664-0.014c67.28,0,130.245,8.28,177.3,23.313c45.067,14.398,61.426,30.977,61.426,38.605
	s-16.358,24.208-61.426,38.606c-47.055,15.033-110.02,23.312-177.3,23.312c-1.224,0-2.443-0.008-3.664-0.014v42.188
	c1.221,0.005,2.44,0.014,3.664,0.014c71.519,0,139.047-8.991,190.14-25.315c75.025-23.971,90.773-56.077,90.773-78.791
	C640.912,81.393,625.164,49.286,550.139,25.315z"/>
<ellipse fill="#FF9A00" cx="360" cy="104.105" rx="259.819" ry="83.011"/>
<path fill="#D86100" d="M360,21.094c-1.225,0-2.442,0.01-3.663,0.014v165.997c1.221,0.005,2.438,0.014,3.663,0.014
	c143.494,0,259.818-37.166,259.818-83.012C619.818,58.26,503.494,21.094,360,21.094z"/>
<path fill="#5B2501" d="M557.085,558.038c0,9.764-6.917,21.744-15.369,26.624l-166.347,96.036c-8.452,4.883-22.289,4.883-30.741,0
	l-166.343-96.036c-8.456-4.88-15.371-16.86-15.371-26.624V365.961c0-9.762,6.915-21.742,15.371-26.622l166.343-96.039
	c8.452-4.881,22.289-4.881,30.741,0l166.347,96.039c8.452,4.88,15.369,16.861,15.369,26.622V558.038z"/>
<g>
	<path fill="#FFFFFF" d="M360.841,261.212l176.992,100.112v200.271L360.841,661.707L183.847,561.595V361.324L360.841,261.212z"/>
	<g>
		<path fill="#8ED6FB" d="M526.8,567.763l-159.104,90.01v-70.089l99.135-54.546L526.8,567.763L526.8,567.763z M537.696,557.91
			V369.703l-58.198,33.637v120.984L537.696,557.91L537.696,557.91z M194.613,567.763l159.104,90.01v-70.089l-99.186-54.546
			L194.613,567.763z M183.712,557.91V369.703l58.198,33.637v120.984L183.712,557.91z M190.544,357.501l163.173-92.303v67.742
			l-104.559,57.518l-0.834,0.472L190.544,357.501z M530.865,357.501l-163.17-92.303v67.742l104.559,57.468l0.834,0.469
			L530.865,357.501L530.865,357.501z"/>
		<path fill="#1C78C0" d="M353.717,571.729l-97.83-53.816v-106.54l97.83,56.478V571.729L353.717,571.729z M367.691,571.729
			l97.832-53.768V411.373l-97.832,56.475V571.729z M262.507,399.064l98.196-53.975l98.199,53.975l-98.199,56.686L262.507,399.064z"
			/>
	</g>
</g>
</svg>
